<svg width="190" height="54" viewBox="0 0 190 54" fill="none" xmlns="http://www.w3.org/2000/svg">
<path d="M76.0098 8.77051V9.2832C76.0098 10.0352 75.9095 10.7119 75.709 11.3135C75.5085 11.9105 75.2236 12.4186 74.8545 12.8379C74.4854 13.2572 74.0456 13.5785 73.5352 13.8018C73.0247 14.0251 72.4574 14.1367 71.833 14.1367C71.2178 14.1367 70.6527 14.0251 70.1377 13.8018C69.6273 13.5785 69.1852 13.2572 68.8115 12.8379C68.4378 12.4186 68.1484 11.9105 67.9434 11.3135C67.7383 10.7119 67.6357 10.0352 67.6357 9.2832V8.77051C67.6357 8.014 67.7383 7.33724 67.9434 6.74023C68.1484 6.14323 68.4355 5.63509 68.8047 5.21582C69.1738 4.79199 69.6136 4.46842 70.124 4.24512C70.639 4.02181 71.2041 3.91016 71.8193 3.91016C72.4437 3.91016 73.0111 4.02181 73.5215 4.24512C74.0319 4.46842 74.4717 4.79199 74.8408 5.21582C75.2145 5.63509 75.5016 6.14323 75.7021 6.74023C75.9072 7.33724 76.0098 8.014 76.0098 8.77051ZM74.1094 9.2832V8.75684C74.1094 8.21452 74.0592 7.73828 73.959 7.32812C73.8587 6.91341 73.7106 6.56478 73.5146 6.28223C73.3187 5.99967 73.0771 5.78776 72.79 5.64648C72.5029 5.50065 72.1794 5.42773 71.8193 5.42773C71.4548 5.42773 71.1312 5.50065 70.8486 5.64648C70.5706 5.78776 70.3337 5.99967 70.1377 6.28223C69.9417 6.56478 69.7913 6.91341 69.6865 7.32812C69.5863 7.73828 69.5361 8.21452 69.5361 8.75684V9.2832C69.5361 9.82096 69.5863 10.2972 69.6865 10.7119C69.7913 11.1266 69.9417 11.4775 70.1377 11.7646C70.3382 12.0472 70.5798 12.2614 70.8623 12.4072C71.1449 12.5531 71.4684 12.626 71.833 12.626C72.1976 12.626 72.5212 12.5531 72.8037 12.4072C73.0863 12.2614 73.3232 12.0472 73.5146 11.7646C73.7106 11.4775 73.8587 11.1266 73.959 10.7119C74.0592 10.2972 74.1094 9.82096 74.1094 9.2832ZM82.3259 3.35645H83.7888C83.7888 3.74382 83.7387 4.06966 83.6384 4.33398C83.5381 4.59375 83.3832 4.8125 83.1736 4.99023C82.9639 5.16341 82.695 5.30697 82.3669 5.4209C82.0388 5.53483 81.6469 5.63509 81.1911 5.72168C80.8083 5.79915 80.4711 5.92676 80.1794 6.10449C79.8877 6.28223 79.6439 6.52604 79.448 6.83594C79.2566 7.14583 79.1176 7.54004 79.031 8.01855C78.9444 8.49707 78.917 9.07357 78.9489 9.74805V10.1445L77.5339 10.3086V9.91211C77.5339 9.03255 77.6137 8.26693 77.7732 7.61523C77.9327 6.95898 78.1583 6.40755 78.4499 5.96094C78.7416 5.50977 79.0902 5.15202 79.4958 4.8877C79.906 4.61882 80.364 4.42969 80.8698 4.32031C81.2071 4.25195 81.4828 4.18132 81.697 4.1084C81.9157 4.03548 82.0752 3.94206 82.1755 3.82812C82.2758 3.70964 82.3259 3.55241 82.3259 3.35645ZM81.3142 7.02051C81.8109 7.02051 82.2507 7.1071 82.6335 7.28027C83.0209 7.44889 83.3467 7.68815 83.6111 7.99805C83.8754 8.30339 84.0759 8.66569 84.2126 9.08496C84.3539 9.49967 84.4245 9.95312 84.4245 10.4453V10.5889C84.4245 11.0993 84.3471 11.571 84.1921 12.0039C84.0417 12.4368 83.8207 12.8128 83.529 13.1318C83.2374 13.4508 82.8773 13.6992 82.4489 13.877C82.0206 14.0547 81.5307 14.1436 80.9792 14.1436C80.4323 14.1436 79.9447 14.0501 79.5163 13.8633C79.0879 13.6719 78.7256 13.4076 78.4294 13.0703C78.1332 12.7331 77.9099 12.3366 77.7595 11.8809C77.6091 11.4206 77.5339 10.9193 77.5339 10.377V10.2334C77.5293 10.1423 77.559 10.0557 77.6228 9.97363C77.6866 9.8916 77.7618 9.80046 77.8484 9.7002C77.9395 9.59993 78.0215 9.47917 78.0945 9.33789C78.3451 8.85482 78.6277 8.4401 78.9421 8.09375C79.2611 7.7474 79.6166 7.48307 80.0085 7.30078C80.4004 7.11393 80.8357 7.02051 81.3142 7.02051ZM80.9655 8.44238C80.5782 8.44238 80.2637 8.53581 80.0222 8.72266C79.7852 8.90495 79.612 9.14876 79.5027 9.4541C79.3933 9.75488 79.3386 10.0853 79.3386 10.4453V10.5889C79.3386 10.8805 79.3682 11.1562 79.4275 11.416C79.4913 11.6712 79.587 11.8968 79.7146 12.0928C79.8422 12.2887 80.0108 12.4437 80.2204 12.5576C80.4301 12.667 80.683 12.7217 80.9792 12.7217C81.2754 12.7217 81.5261 12.667 81.7312 12.5576C81.9408 12.4437 82.1094 12.2887 82.237 12.0928C82.3646 11.8968 82.4581 11.6712 82.5173 11.416C82.5811 11.1562 82.613 10.8805 82.613 10.5889V10.4453C82.613 10.1764 82.5811 9.92122 82.5173 9.67969C82.4581 9.43815 82.3646 9.22624 82.237 9.04395C82.1094 8.8571 81.9385 8.71126 81.7243 8.60645C81.5147 8.49707 81.2618 8.44238 80.9655 8.44238ZM89.0659 6.60352V8.03223H85.3676V6.60352H89.0659ZM88.6694 8.87988H90.8295C91.4858 8.87988 92.044 8.98926 92.5043 9.20801C92.9692 9.4222 93.3224 9.72298 93.5639 10.1104C93.81 10.4932 93.933 10.9375 93.933 11.4434C93.933 11.8079 93.8647 12.1475 93.728 12.4619C93.5912 12.7718 93.3884 13.043 93.1196 13.2754C92.8552 13.5033 92.5294 13.681 92.142 13.8086C91.7592 13.9362 91.3217 14 90.8295 14H87.5073V6.60352H89.3188V12.585H90.8295C91.1394 12.585 91.3878 12.5326 91.5746 12.4277C91.7661 12.3184 91.9051 12.1794 91.9916 12.0107C92.0782 11.8376 92.1215 11.653 92.1215 11.457C92.1215 11.2565 92.0782 11.0697 91.9916 10.8965C91.9051 10.7188 91.7661 10.5752 91.5746 10.4658C91.3878 10.3564 91.1394 10.3018 90.8295 10.3018H88.6694V8.87988ZM98.6632 14.1367C98.1027 14.1367 97.5991 14.0456 97.1525 13.8633C96.7059 13.681 96.3254 13.4281 96.0109 13.1045C95.701 12.7764 95.4617 12.3958 95.2931 11.9629C95.1291 11.5254 95.047 11.056 95.047 10.5547V10.2812C95.047 9.71159 95.1291 9.19434 95.2931 8.72949C95.4572 8.26009 95.6896 7.85677 95.9904 7.51953C96.2912 7.18229 96.6512 6.92253 97.0705 6.74023C97.4897 6.55794 97.9523 6.4668 98.4582 6.4668C98.9823 6.4668 99.4448 6.55566 99.8459 6.7334C100.247 6.90658 100.582 7.15267 100.851 7.47168C101.12 7.79069 101.322 8.1735 101.459 8.62012C101.596 9.06217 101.664 9.55208 101.664 10.0898V10.8486H95.8673V9.60449H99.8869V9.46777C99.8778 9.18066 99.8231 8.91862 99.7228 8.68164C99.6226 8.4401 99.4676 8.2487 99.258 8.10742C99.0483 7.96159 98.7772 7.88867 98.4445 7.88867C98.1756 7.88867 97.9409 7.94792 97.7404 8.06641C97.5444 8.18034 97.3804 8.3444 97.2482 8.55859C97.1206 8.76823 97.0249 9.01888 96.9611 9.31055C96.8973 9.60221 96.8654 9.92578 96.8654 10.2812V10.5547C96.8654 10.8646 96.9064 11.1517 96.9884 11.416C97.075 11.6803 97.2004 11.9105 97.3644 12.1064C97.533 12.2979 97.7336 12.4482 97.966 12.5576C98.203 12.6624 98.4718 12.7148 98.7726 12.7148C99.1509 12.7148 99.4927 12.6419 99.798 12.4961C100.108 12.3457 100.377 12.1247 100.605 11.833L101.514 12.7764C101.359 13.0042 101.149 13.223 100.885 13.4326C100.625 13.6423 100.311 13.8132 99.9416 13.9453C99.5724 14.0729 99.1463 14.1367 98.6632 14.1367ZM104.487 6.60352H106.292L106.224 9.14648C106.201 9.91667 106.11 10.582 105.95 11.1426C105.795 11.6986 105.588 12.1657 105.328 12.5439C105.073 12.9222 104.781 13.2275 104.453 13.46C104.129 13.6924 103.79 13.8724 103.434 14H103.004L102.997 12.5918L103.209 12.5781C103.423 12.3503 103.603 12.127 103.749 11.9082C103.899 11.6849 104.02 11.4456 104.111 11.1904C104.202 10.9352 104.271 10.6436 104.316 10.3154C104.366 9.98275 104.398 9.5931 104.412 9.14648L104.487 6.60352ZM104.973 6.60352H109.765V14H107.96V8.08691H104.973V6.60352ZM102.594 12.5781H110.797V16.2148H108.992V14H104.432V16.2148H102.587L102.594 12.5781ZM113.941 11.4229L116.634 6.60352H118.446V14H116.634V9.17383L113.941 14H112.129V6.60352H113.941V11.4229ZM125.418 9.63867V11.0537H121.624V9.63867H125.418ZM122.192 6.60352V14H120.38V6.60352H122.192ZM126.683 6.60352V14H124.865V6.60352H126.683ZM131.926 14.1367C131.365 14.1367 130.862 14.0456 130.415 13.8633C129.968 13.681 129.588 13.4281 129.273 13.1045C128.964 12.7764 128.724 12.3958 128.556 11.9629C128.392 11.5254 128.31 11.056 128.31 10.5547V10.2812C128.31 9.71159 128.392 9.19434 128.556 8.72949C128.72 8.26009 128.952 7.85677 129.253 7.51953C129.554 7.18229 129.914 6.92253 130.333 6.74023C130.752 6.55794 131.215 6.4668 131.721 6.4668C132.245 6.4668 132.707 6.55566 133.108 6.7334C133.509 6.90658 133.844 7.15267 134.113 7.47168C134.382 7.79069 134.585 8.1735 134.722 8.62012C134.858 9.06217 134.927 9.55208 134.927 10.0898V10.8486H129.13V9.60449H133.149V9.46777C133.14 9.18066 133.086 8.91862 132.985 8.68164C132.885 8.4401 132.73 8.2487 132.521 8.10742C132.311 7.96159 132.04 7.88867 131.707 7.88867C131.438 7.88867 131.203 7.94792 131.003 8.06641C130.807 8.18034 130.643 8.3444 130.511 8.55859C130.383 8.76823 130.287 9.01888 130.224 9.31055C130.16 9.60221 130.128 9.92578 130.128 10.2812V10.5547C130.128 10.8646 130.169 11.1517 130.251 11.416C130.338 11.6803 130.463 11.9105 130.627 12.1064C130.796 12.2979 130.996 12.4482 131.229 12.5576C131.466 12.6624 131.734 12.7148 132.035 12.7148C132.413 12.7148 132.755 12.6419 133.061 12.4961C133.37 12.3457 133.639 12.1247 133.867 11.833L134.776 12.7764C134.621 13.0042 134.412 13.223 134.147 13.4326C133.888 13.6423 133.573 13.8132 133.204 13.9453C132.835 14.0729 132.409 14.1367 131.926 14.1367ZM141.469 9.63867V11.0537H137.675V9.63867H141.469ZM138.242 6.60352V14H136.43V6.60352H138.242ZM142.733 6.60352V14H140.915V6.60352H142.733ZM149.706 9.63867V11.0537H145.912V9.63867H149.706ZM146.479 6.60352V14H144.667V6.60352H146.479ZM150.97 6.60352V14H149.152V6.60352H150.97ZM156.965 12.4277V9.0166C156.965 8.76595 156.922 8.54948 156.835 8.36719C156.749 8.1849 156.616 8.04362 156.439 7.94336C156.261 7.8431 156.035 7.79297 155.762 7.79297C155.52 7.79297 155.308 7.83398 155.126 7.91602C154.948 7.99805 154.812 8.11426 154.716 8.26465C154.62 8.41048 154.572 8.5791 154.572 8.77051H152.761C152.761 8.46517 152.834 8.17578 152.98 7.90234C153.126 7.62435 153.333 7.37826 153.602 7.16406C153.875 6.94531 154.201 6.77441 154.579 6.65137C154.962 6.52832 155.39 6.4668 155.864 6.4668C156.425 6.4668 156.924 6.5625 157.362 6.75391C157.804 6.94076 158.15 7.22331 158.401 7.60156C158.656 7.97982 158.783 8.45605 158.783 9.03027V12.2568C158.783 12.626 158.806 12.9427 158.852 13.207C158.902 13.4668 158.975 13.6924 159.071 13.8838V14H157.232C157.145 13.8132 157.079 13.5762 157.033 13.2891C156.988 12.9974 156.965 12.7103 156.965 12.4277ZM157.218 9.49512L157.232 10.5684H156.09C155.807 10.5684 155.559 10.598 155.345 10.6572C155.131 10.7119 154.955 10.7939 154.819 10.9033C154.682 11.0081 154.579 11.1357 154.511 11.2861C154.443 11.432 154.408 11.5983 154.408 11.7852C154.408 11.9674 154.449 12.1315 154.531 12.2773C154.618 12.4232 154.741 12.5394 154.901 12.626C155.065 12.708 155.256 12.749 155.475 12.749C155.794 12.749 156.072 12.6852 156.309 12.5576C156.546 12.4255 156.73 12.266 156.863 12.0791C156.995 11.8923 157.065 11.7145 157.074 11.5459L157.594 12.3252C157.53 12.512 157.434 12.7103 157.307 12.9199C157.179 13.1296 157.015 13.3255 156.815 13.5078C156.614 13.6901 156.373 13.8405 156.09 13.959C155.807 14.0775 155.479 14.1367 155.106 14.1367C154.627 14.1367 154.199 14.041 153.821 13.8496C153.442 13.6582 153.144 13.3962 152.925 13.0635C152.706 12.7308 152.597 12.3525 152.597 11.9287C152.597 11.5368 152.67 11.1904 152.816 10.8896C152.961 10.5889 153.178 10.3359 153.465 10.1309C153.752 9.92122 154.108 9.764 154.531 9.65918C154.96 9.5498 155.45 9.49512 156.001 9.49512H157.218ZM162.263 10.3496H164.115L162.037 14H160.184L162.263 10.3496ZM163.52 6.60352H166.733V14H164.929V8.01172H163.52C163.233 8.01172 162.994 8.06413 162.803 8.16895C162.616 8.27376 162.477 8.4082 162.386 8.57227C162.295 8.73177 162.249 8.89583 162.249 9.06445C162.249 9.22852 162.292 9.38802 162.379 9.54297C162.465 9.69792 162.598 9.82552 162.775 9.92578C162.958 10.026 163.185 10.0762 163.459 10.0762H165.571V11.3477H163.459C162.99 11.3477 162.568 11.2907 162.194 11.1768C161.825 11.0583 161.508 10.8942 161.244 10.6846C160.984 10.4749 160.786 10.2288 160.649 9.94629C160.513 9.65918 160.444 9.34701 160.444 9.00977C160.444 8.66341 160.513 8.3444 160.649 8.05273C160.791 7.76107 160.993 7.50586 161.258 7.28711C161.527 7.06836 161.85 6.89974 162.228 6.78125C162.611 6.66276 163.042 6.60352 163.52 6.60352ZM72.25 29.8672L74.3281 24.6035H75.8389L72.8652 32H71.6416L68.6748 24.6035H70.1924L72.25 29.8672ZM69.748 24.6035V32H67.9365V24.6035H69.748ZM74.7861 32V24.6035H76.5977V32H74.7861ZM81.9978 32.1367C81.4372 32.1367 80.9336 32.0456 80.487 31.8633C80.0404 31.681 79.6599 31.4281 79.3454 31.1045C79.0355 30.7764 78.7963 30.3958 78.6277 29.9629C78.4636 29.5254 78.3816 29.056 78.3816 28.5547V28.2812C78.3816 27.7116 78.4636 27.1943 78.6277 26.7295C78.7917 26.2601 79.0241 25.8568 79.3249 25.5195C79.6257 25.1823 79.9857 24.9225 80.405 24.7402C80.8243 24.5579 81.2868 24.4668 81.7927 24.4668C82.3168 24.4668 82.7793 24.5557 83.1804 24.7334C83.5814 24.9066 83.9164 25.1527 84.1853 25.4717C84.4542 25.7907 84.657 26.1735 84.7937 26.6201C84.9304 27.0622 84.9987 27.5521 84.9987 28.0898V28.8486H79.2019V27.6045H83.2214V27.4678C83.2123 27.1807 83.1576 26.9186 83.0573 26.6816C82.9571 26.4401 82.8021 26.2487 82.5925 26.1074C82.3829 25.9616 82.1117 25.8887 81.779 25.8887C81.5101 25.8887 81.2754 25.9479 81.0749 26.0664C80.879 26.1803 80.7149 26.3444 80.5827 26.5586C80.4551 26.7682 80.3594 27.0189 80.2956 27.3105C80.2318 27.6022 80.1999 27.9258 80.1999 28.2812V28.5547C80.1999 28.8646 80.2409 29.1517 80.323 29.416C80.4096 29.6803 80.5349 29.9105 80.6989 30.1064C80.8676 30.2979 81.0681 30.4482 81.3005 30.5576C81.5375 30.6624 81.8064 30.7148 82.1071 30.7148C82.4854 30.7148 82.8272 30.6419 83.1325 30.4961C83.4424 30.3457 83.7113 30.1247 83.9392 29.833L84.8484 30.7764C84.6934 31.0042 84.4838 31.223 84.2195 31.4326C83.9597 31.6423 83.6452 31.8132 83.2761 31.9453C82.907 32.0729 82.4808 32.1367 81.9978 32.1367ZM89.9955 24.6035V32H88.184V24.6035H89.9955ZM92.4018 24.6035V26.0117H85.8188V24.6035H92.4018ZM97.7062 30.4277V27.0166C97.7062 26.766 97.6629 26.5495 97.5763 26.3672C97.4897 26.1849 97.3576 26.0436 97.1798 25.9434C97.0021 25.8431 96.7765 25.793 96.5031 25.793C96.2615 25.793 96.0496 25.834 95.8673 25.916C95.6896 25.998 95.5529 26.1143 95.4572 26.2646C95.3615 26.4105 95.3136 26.5791 95.3136 26.7705H93.5021C93.5021 26.4652 93.575 26.1758 93.7209 25.9023C93.8667 25.6243 94.074 25.3783 94.3429 25.1641C94.6164 24.9453 94.9422 24.7744 95.3205 24.6514C95.7033 24.5283 96.1317 24.4668 96.6056 24.4668C97.1662 24.4668 97.6652 24.5625 98.1027 24.7539C98.5448 24.9408 98.8911 25.2233 99.1418 25.6016C99.397 25.9798 99.5246 26.4561 99.5246 27.0303V30.2568C99.5246 30.626 99.5474 30.9427 99.5929 31.207C99.6431 31.4668 99.716 31.6924 99.8117 31.8838V32H97.9728C97.8862 31.8132 97.8201 31.5762 97.7746 31.2891C97.729 30.9974 97.7062 30.7103 97.7062 30.4277ZM97.9591 27.4951L97.9728 28.5684H96.8312C96.5487 28.5684 96.3003 28.598 96.0861 28.6572C95.8719 28.7119 95.6964 28.7939 95.5597 28.9033C95.423 29.0081 95.3205 29.1357 95.2521 29.2861C95.1838 29.432 95.1496 29.5983 95.1496 29.7852C95.1496 29.9674 95.1906 30.1315 95.2726 30.2773C95.3592 30.4232 95.4823 30.5394 95.6418 30.626C95.8058 30.708 95.9972 30.749 96.216 30.749C96.535 30.749 96.813 30.6852 97.05 30.5576C97.2869 30.4255 97.4715 30.266 97.6037 30.0791C97.7358 29.8923 97.8065 29.7145 97.8156 29.5459L98.3351 30.3252C98.2713 30.512 98.1756 30.7103 98.048 30.9199C97.9204 31.1296 97.7563 31.3255 97.5558 31.5078C97.3553 31.6901 97.1138 31.8405 96.8312 31.959C96.5487 32.0775 96.2205 32.1367 95.8468 32.1367C95.3683 32.1367 94.9399 32.041 94.5617 31.8496C94.1834 31.6582 93.8849 31.3962 93.6662 31.0635C93.4474 30.7308 93.338 30.3525 93.338 29.9287C93.338 29.5368 93.411 29.1904 93.5568 28.8896C93.7026 28.5889 93.9191 28.3359 94.2062 28.1309C94.4933 27.9212 94.8488 27.764 95.2726 27.6592C95.701 27.5498 96.1909 27.4951 96.7423 27.4951H97.9591ZM106.401 24.6035V26.0322H102.778V24.6035H106.401ZM107.762 24.6035V32H105.957V24.6035H107.762ZM102.327 24.6035H104.111L103.913 28.2949C103.881 28.8372 103.824 29.3135 103.742 29.7236C103.66 30.1292 103.551 30.4779 103.414 30.7695C103.277 31.0566 103.111 31.2913 102.915 31.4736C102.719 31.6559 102.491 31.7904 102.231 31.877C101.976 31.959 101.689 32 101.37 32H100.816L100.796 30.5439L101.056 30.5234C101.215 30.5098 101.352 30.4665 101.466 30.3936C101.584 30.3206 101.684 30.2158 101.766 30.0791C101.853 29.9424 101.924 29.7669 101.978 29.5527C102.038 29.334 102.083 29.0788 102.115 28.7871C102.152 28.4909 102.177 28.1491 102.19 27.7617L102.327 24.6035ZM114.666 24.6035V26.0322H111.043V24.6035H114.666ZM116.026 24.6035V32H114.221V24.6035H116.026ZM110.591 24.6035H112.376L112.177 28.2949C112.145 28.8372 112.088 29.3135 112.006 29.7236C111.924 30.1292 111.815 30.4779 111.678 30.7695C111.542 31.0566 111.375 31.2913 111.179 31.4736C110.983 31.6559 110.755 31.7904 110.496 31.877C110.24 31.959 109.953 32 109.634 32H109.081L109.06 30.5439L109.32 30.5234C109.479 30.5098 109.616 30.4665 109.73 30.3936C109.849 30.3206 109.949 30.2158 110.031 30.0791C110.117 29.9424 110.188 29.7669 110.243 29.5527C110.302 29.334 110.348 29.0788 110.379 28.7871C110.416 28.4909 110.441 28.1491 110.455 27.7617L110.591 24.6035ZM117.639 28.377V28.2334C117.639 27.6911 117.716 27.1921 117.871 26.7363C118.026 26.276 118.252 25.8773 118.548 25.54C118.844 25.2028 119.207 24.9408 119.635 24.7539C120.063 24.5625 120.551 24.4668 121.098 24.4668C121.654 24.4668 122.146 24.5625 122.575 24.7539C123.007 24.9408 123.372 25.2028 123.668 25.54C123.965 25.8773 124.19 26.276 124.345 26.7363C124.5 27.1921 124.577 27.6911 124.577 28.2334V28.377C124.577 28.9147 124.5 29.4137 124.345 29.874C124.19 30.3298 123.965 30.7285 123.668 31.0703C123.372 31.4076 123.01 31.6696 122.581 31.8564C122.153 32.0433 121.663 32.1367 121.112 32.1367C120.565 32.1367 120.075 32.0433 119.642 31.8564C119.209 31.6696 118.844 31.4076 118.548 31.0703C118.252 30.7285 118.026 30.3298 117.871 29.874C117.716 29.4137 117.639 28.9147 117.639 28.377ZM119.444 28.2334V28.377C119.444 28.7005 119.476 29.0036 119.539 29.2861C119.603 29.5687 119.701 29.8171 119.833 30.0312C119.965 30.2454 120.136 30.4141 120.346 30.5371C120.56 30.6556 120.815 30.7148 121.112 30.7148C121.403 30.7148 121.654 30.6556 121.864 30.5371C122.073 30.4141 122.244 30.2454 122.376 30.0312C122.513 29.8171 122.613 29.5687 122.677 29.2861C122.741 29.0036 122.773 28.7005 122.773 28.377V28.2334C122.773 27.9144 122.741 27.6159 122.677 27.3379C122.613 27.0553 122.513 26.807 122.376 26.5928C122.244 26.374 122.071 26.2031 121.857 26.0801C121.647 25.9525 121.394 25.8887 121.098 25.8887C120.806 25.8887 120.556 25.9525 120.346 26.0801C120.136 26.2031 119.965 26.374 119.833 26.5928C119.701 26.807 119.603 27.0553 119.539 27.3379C119.476 27.6159 119.444 27.9144 119.444 28.2334ZM131.03 24.6035V26.0322H127.407V24.6035H131.03ZM132.391 24.6035V32H130.586V24.6035H132.391ZM126.956 24.6035H128.74L128.542 28.2949C128.51 28.8372 128.453 29.3135 128.371 29.7236C128.289 30.1292 128.18 30.4779 128.043 30.7695C127.906 31.0566 127.74 31.2913 127.544 31.4736C127.348 31.6559 127.12 31.7904 126.86 31.877C126.605 31.959 126.318 32 125.999 32H125.445L125.425 30.5439L125.685 30.5234C125.844 30.5098 125.981 30.4665 126.095 30.3936C126.213 30.3206 126.314 30.2158 126.396 30.0791C126.482 29.9424 126.553 29.7669 126.607 29.5527C126.667 29.334 126.712 29.0788 126.744 28.7871C126.781 28.4909 126.806 28.1491 126.819 27.7617L126.956 24.6035ZM134.004 28.377V28.2334C134.004 27.6911 134.081 27.1921 134.236 26.7363C134.391 26.276 134.617 25.8773 134.913 25.54C135.209 25.2028 135.571 24.9408 136 24.7539C136.428 24.5625 136.916 24.4668 137.463 24.4668C138.019 24.4668 138.511 24.5625 138.939 24.7539C139.372 24.9408 139.737 25.2028 140.033 25.54C140.329 25.8773 140.555 26.276 140.71 26.7363C140.865 27.1921 140.942 27.6911 140.942 28.2334V28.377C140.942 28.9147 140.865 29.4137 140.71 29.874C140.555 30.3298 140.329 30.7285 140.033 31.0703C139.737 31.4076 139.374 31.6696 138.946 31.8564C138.518 32.0433 138.028 32.1367 137.476 32.1367C136.929 32.1367 136.44 32.0433 136.007 31.8564C135.574 31.6696 135.209 31.4076 134.913 31.0703C134.617 30.7285 134.391 30.3298 134.236 29.874C134.081 29.4137 134.004 28.9147 134.004 28.377ZM135.808 28.2334V28.377C135.808 28.7005 135.84 29.0036 135.904 29.2861C135.968 29.5687 136.066 29.8171 136.198 30.0312C136.33 30.2454 136.501 30.4141 136.711 30.5371C136.925 30.6556 137.18 30.7148 137.476 30.7148C137.768 30.7148 138.019 30.6556 138.228 30.5371C138.438 30.4141 138.609 30.2454 138.741 30.0312C138.878 29.8171 138.978 29.5687 139.042 29.2861C139.106 29.0036 139.137 28.7005 139.137 28.377V28.2334C139.137 27.9144 139.106 27.6159 139.042 27.3379C138.978 27.0553 138.878 26.807 138.741 26.5928C138.609 26.374 138.436 26.2031 138.221 26.0801C138.012 25.9525 137.759 25.8887 137.463 25.8887C137.171 25.8887 136.92 25.9525 136.711 26.0801C136.501 26.2031 136.33 26.374 136.198 26.5928C136.066 26.807 135.968 27.0553 135.904 27.3379C135.84 27.6159 135.808 27.9144 135.808 28.2334ZM146.971 29.8672L149.049 24.6035H150.56L147.586 32H146.363L143.396 24.6035H144.914L146.971 29.8672ZM144.469 24.6035V32H142.658V24.6035H144.469ZM149.507 32V24.6035H151.319V32H149.507ZM158.448 27.6387V29.0537H154.654V27.6387H158.448ZM155.222 24.6035V32H153.41V24.6035H155.222ZM159.713 24.6035V32H157.895V24.6035H159.713ZM165.708 30.4277V27.0166C165.708 26.766 165.665 26.5495 165.578 26.3672C165.491 26.1849 165.359 26.0436 165.182 25.9434C165.004 25.8431 164.778 25.793 164.505 25.793C164.263 25.793 164.051 25.834 163.869 25.916C163.691 25.998 163.555 26.1143 163.459 26.2646C163.363 26.4105 163.315 26.5791 163.315 26.7705H161.504C161.504 26.4652 161.577 26.1758 161.723 25.9023C161.868 25.6243 162.076 25.3783 162.345 25.1641C162.618 24.9453 162.944 24.7744 163.322 24.6514C163.705 24.5283 164.133 24.4668 164.607 24.4668C165.168 24.4668 165.667 24.5625 166.104 24.7539C166.546 24.9408 166.893 25.2233 167.143 25.6016C167.399 25.9798 167.526 26.4561 167.526 27.0303V30.2568C167.526 30.626 167.549 30.9427 167.595 31.207C167.645 31.4668 167.718 31.6924 167.813 31.8838V32H165.975C165.888 31.8132 165.822 31.5762 165.776 31.2891C165.731 30.9974 165.708 30.7103 165.708 30.4277ZM165.961 27.4951L165.975 28.5684H164.833C164.55 28.5684 164.302 28.598 164.088 28.6572C163.874 28.7119 163.698 28.7939 163.561 28.9033C163.425 29.0081 163.322 29.1357 163.254 29.2861C163.185 29.432 163.151 29.5983 163.151 29.7852C163.151 29.9674 163.192 30.1315 163.274 30.2773C163.361 30.4232 163.484 30.5394 163.643 30.626C163.808 30.708 163.999 30.749 164.218 30.749C164.537 30.749 164.815 30.6852 165.052 30.5576C165.289 30.4255 165.473 30.266 165.605 30.0791C165.738 29.8923 165.808 29.7145 165.817 29.5459L166.337 30.3252C166.273 30.512 166.177 30.7103 166.05 30.9199C165.922 31.1296 165.758 31.3255 165.558 31.5078C165.357 31.6901 165.115 31.8405 164.833 31.959C164.55 32.0775 164.222 32.1367 163.849 32.1367C163.37 32.1367 162.942 32.041 162.563 31.8496C162.185 31.6582 161.887 31.3962 161.668 31.0635C161.449 30.7308 161.34 30.3525 161.34 29.9287C161.34 29.5368 161.413 29.1904 161.559 28.8896C161.704 28.5889 161.921 28.3359 162.208 28.1309C162.495 27.9212 162.851 27.764 163.274 27.6592C163.703 27.5498 164.193 27.4951 164.744 27.4951H165.961ZM171.006 28.3496H172.858L170.78 32H168.927L171.006 28.3496ZM172.263 24.6035H175.476V32H173.672V26.0117H172.263C171.976 26.0117 171.737 26.0641 171.546 26.1689C171.359 26.2738 171.22 26.4082 171.129 26.5723C171.037 26.7318 170.992 26.8958 170.992 27.0645C170.992 27.2285 171.035 27.388 171.122 27.543C171.208 27.6979 171.34 27.8255 171.518 27.9258C171.7 28.026 171.928 28.0762 172.202 28.0762H174.314V29.3477H172.202C171.732 29.3477 171.311 29.2907 170.937 29.1768C170.568 29.0583 170.251 28.8942 169.987 28.6846C169.727 28.4749 169.529 28.2288 169.392 27.9463C169.256 27.6592 169.187 27.347 169.187 27.0098C169.187 26.6634 169.256 26.3444 169.392 26.0527C169.534 25.7611 169.736 25.5059 170.001 25.2871C170.27 25.0684 170.593 24.8997 170.971 24.7812C171.354 24.6628 171.785 24.6035 172.263 24.6035ZM69.7412 42.6035V50H67.9365V42.6035H69.7412ZM74.5605 42.6035L71.2998 47.1426H69.3789L69.1533 45.4883H70.4863L72.2842 42.6035H74.5605ZM72.3936 50L70.3701 46.8281L71.874 45.8848L74.793 50H72.3936ZM75.3054 46.377V46.2334C75.3054 45.6911 75.3829 45.1921 75.5378 44.7363C75.6928 44.276 75.9183 43.8773 76.2146 43.54C76.5108 43.2028 76.8731 42.9408 77.3015 42.7539C77.7299 42.5625 78.2175 42.4668 78.7644 42.4668C79.3204 42.4668 79.8126 42.5625 80.2409 42.7539C80.6739 42.9408 81.0385 43.2028 81.3347 43.54C81.6309 43.8773 81.8565 44.276 82.0114 44.7363C82.1664 45.1921 82.2439 45.6911 82.2439 46.2334V46.377C82.2439 46.9147 82.1664 47.4137 82.0114 47.874C81.8565 48.3298 81.6309 48.7285 81.3347 49.0703C81.0385 49.4076 80.6762 49.6696 80.2478 49.8564C79.8194 50.0433 79.3295 50.1367 78.778 50.1367C78.2312 50.1367 77.7413 50.0433 77.3083 49.8564C76.8754 49.6696 76.5108 49.4076 76.2146 49.0703C75.9183 48.7285 75.6928 48.3298 75.5378 47.874C75.3829 47.4137 75.3054 46.9147 75.3054 46.377ZM77.1101 46.2334V46.377C77.1101 46.7005 77.142 47.0036 77.2058 47.2861C77.2696 47.5687 77.3676 47.8171 77.4997 48.0312C77.6319 48.2454 77.8028 48.4141 78.0124 48.5371C78.2266 48.6556 78.4818 48.7148 78.778 48.7148C79.0697 48.7148 79.3204 48.6556 79.53 48.5371C79.7396 48.4141 79.9105 48.2454 80.0427 48.0312C80.1794 47.8171 80.2797 47.5687 80.3435 47.2861C80.4073 47.0036 80.4392 46.7005 80.4392 46.377V46.2334C80.4392 45.9144 80.4073 45.6159 80.3435 45.3379C80.2797 45.0553 80.1794 44.807 80.0427 44.5928C79.9105 44.374 79.7374 44.2031 79.5232 44.0801C79.3135 43.9525 79.0606 43.8887 78.7644 43.8887C78.4727 43.8887 78.2221 43.9525 78.0124 44.0801C77.8028 44.2031 77.6319 44.374 77.4997 44.5928C77.3676 44.807 77.2696 45.0553 77.2058 45.3379C77.142 45.6159 77.1101 45.9144 77.1101 46.2334ZM88.2729 47.8672L90.351 42.6035H91.8618L88.8881 50H87.6645L84.6977 42.6035H86.2153L88.2729 47.8672ZM85.7709 42.6035V50H83.9594V42.6035H85.7709ZM90.809 50V42.6035H92.6205V50H90.809ZM99.6613 42.6035V44.0322H96.0451V42.6035H99.6613ZM96.5236 42.6035V50H94.7121V42.6035H96.5236ZM101.028 42.6035V50H99.2101V42.6035H101.028ZM107.023 48.4277V45.0166C107.023 44.766 106.98 44.5495 106.893 44.3672C106.807 44.1849 106.675 44.0436 106.497 43.9434C106.319 43.8431 106.094 43.793 105.82 43.793C105.579 43.793 105.367 43.834 105.184 43.916C105.007 43.998 104.87 44.1143 104.774 44.2646C104.679 44.4105 104.631 44.5791 104.631 44.7705H102.819C102.819 44.4652 102.892 44.1758 103.038 43.9023C103.184 43.6243 103.391 43.3783 103.66 43.1641C103.933 42.9453 104.259 42.7744 104.638 42.6514C105.02 42.5283 105.449 42.4668 105.923 42.4668C106.483 42.4668 106.982 42.5625 107.42 42.7539C107.862 42.9408 108.208 43.2233 108.459 43.6016C108.714 43.9798 108.842 44.4561 108.842 45.0303V48.2568C108.842 48.626 108.864 48.9427 108.91 49.207C108.96 49.4668 109.033 49.6924 109.129 49.8838V50H107.29C107.203 49.8132 107.137 49.5762 107.092 49.2891C107.046 48.9974 107.023 48.7103 107.023 48.4277ZM107.276 45.4951L107.29 46.5684H106.148C105.866 46.5684 105.617 46.598 105.403 46.6572C105.189 46.7119 105.014 46.7939 104.877 46.9033C104.74 47.0081 104.638 47.1357 104.569 47.2861C104.501 47.432 104.467 47.5983 104.467 47.7852C104.467 47.9674 104.508 48.1315 104.59 48.2773C104.676 48.4232 104.799 48.5394 104.959 48.626C105.123 48.708 105.314 48.749 105.533 48.749C105.852 48.749 106.13 48.6852 106.367 48.5576C106.604 48.4255 106.789 48.266 106.921 48.0791C107.053 47.8923 107.124 47.7145 107.133 47.5459L107.652 48.3252C107.588 48.512 107.493 48.7103 107.365 48.9199C107.238 49.1296 107.073 49.3255 106.873 49.5078C106.672 49.6901 106.431 49.8405 106.148 49.959C105.866 50.0775 105.538 50.1367 105.164 50.1367C104.685 50.1367 104.257 50.041 103.879 49.8496C103.501 49.6582 103.202 49.3962 102.983 49.0635C102.765 48.7308 102.655 48.3525 102.655 47.9287C102.655 47.5368 102.728 47.1904 102.874 46.8896C103.02 46.5889 103.236 46.3359 103.523 46.1309C103.81 45.9212 104.166 45.764 104.59 45.6592C105.018 45.5498 105.508 45.4951 106.059 45.4951H107.276ZM115.8 45.6387V47.0537H112.006V45.6387H115.8ZM112.574 42.6035V50H110.762V42.6035H112.574ZM117.065 42.6035V50H115.247V42.6035H117.065ZM120.811 47.4229L123.504 42.6035H125.316V50H123.504V45.1738L120.811 50H118.999V42.6035H120.811V47.4229ZM128.809 46.3496H130.661L128.583 50H126.731L128.809 46.3496ZM130.066 42.6035H133.279V50H131.475V44.0117H130.066C129.779 44.0117 129.54 44.0641 129.349 44.1689C129.162 44.2738 129.023 44.4082 128.932 44.5723C128.841 44.7318 128.795 44.8958 128.795 45.0645C128.795 45.2285 128.838 45.388 128.925 45.543C129.011 45.6979 129.144 45.8255 129.321 45.9258C129.504 46.026 129.731 46.0762 130.005 46.0762H132.117V47.3477H130.005C129.536 47.3477 129.114 47.2907 128.74 47.1768C128.371 47.0583 128.054 46.8942 127.79 46.6846C127.53 46.4749 127.332 46.2288 127.195 45.9463C127.059 45.6592 126.99 45.347 126.99 45.0098C126.99 44.6634 127.059 44.3444 127.195 44.0527C127.337 43.7611 127.539 43.5059 127.804 43.2871C128.073 43.0684 128.396 42.8997 128.774 42.7812C129.157 42.6628 129.588 42.6035 130.066 42.6035Z" fill="#E0E0E0"/>
<path d="M2 37.2348V14.6576L21.5 3.45546V27.2889L2 37.2348Z" stroke="#FFB100" stroke-width="4"/>
<path d="M47 40.5L23.5 54L0 40.5L23.5 28.5V0L47 13.5V40.5Z" fill="#4A7AF5"/>
<path d="M47 40.5L23.5 54L0 40.5L23.5 28.5V0L47 13.5V40.5Z" fill="url(#paint0_angular_32_107)"/>
<defs>
<radialGradient id="paint0_angular_32_107" cx="0" cy="0" r="1" gradientUnits="userSpaceOnUse" gradientTransform="translate(23.5 28.5) rotate(27.0506) scale(26.3866 26.6602)">
<stop stop-color="#4A7AF5"/>
<stop offset="0.0001" stop-color="#163175"/>
<stop offset="1" stop-color="#163175" stop-opacity="0"/>
</radialGradient>
</defs>
</svg>
