<svg width="190" height="54" fill="none" xmlns="http://www.w3.org/2000/svg"><path d="M76.01 8.77v.513c0 .752-.1 1.429-.301 2.03a4.39 4.39 0 01-.855 1.525c-.369.42-.808.74-1.319.964a4.203 4.203 0 01-1.702.335 4.22 4.22 0 01-1.695-.335 3.795 3.795 0 01-1.327-.964 4.414 4.414 0 01-.868-1.524c-.205-.602-.307-1.279-.307-2.03V8.77c0-.757.102-1.434.307-2.03a4.474 4.474 0 01.862-1.525 3.675 3.675 0 011.319-.97 4.216 4.216 0 011.695-.336c.625 0 1.192.112 1.703.335.51.223.95.547 1.319.97.374.42.66.928.861 1.525.205.597.308 1.274.308 2.03zm-1.9.513v-.526a6.06 6.06 0 00-.151-1.429 3.097 3.097 0 00-.444-1.046 1.893 1.893 0 00-.725-.636 2.113 2.113 0 00-.97-.218c-.365 0-.689.073-.971.218a1.924 1.924 0 00-.711.636 3.194 3.194 0 00-.452 1.046c-.1.41-.15.887-.15 1.429v.526c0 .538.05 1.014.15 1.429.105.415.256.765.452 1.053.2.282.442.496.724.642.283.146.606.219.971.219s.688-.073.97-.219c.283-.146.52-.36.712-.642.196-.288.344-.638.444-1.053.1-.415.15-.891.15-1.429zm8.216-5.927h1.463c0 .388-.05.714-.15.978a1.6 1.6 0 01-.465.656 2.59 2.59 0 01-.807.43c-.328.115-.72.215-1.176.302-.383.077-.72.205-1.012.382a2.242 2.242 0 00-.731.732c-.191.31-.33.704-.417 1.183-.087.478-.114 1.055-.082 1.729v.397l-1.415.164v-.397c0-.88.08-1.645.24-2.297.159-.656.384-1.207.676-1.654.292-.451.64-.809 1.046-1.073.41-.27.868-.458 1.374-.568.337-.068.613-.139.827-.212.219-.073.378-.166.478-.28.1-.118.15-.276.15-.472zm-1.012 3.665c.497 0 .937.086 1.32.26.387.168.713.407.977.717.264.305.465.668.602 1.087.14.415.212.868.212 1.36v.144c0 .51-.078.982-.233 1.415a3.2 3.2 0 01-.663 1.128 2.995 2.995 0 01-1.08.745c-.428.178-.918.267-1.47.267a3.643 3.643 0 01-1.463-.28 3.118 3.118 0 01-1.087-.794 3.388 3.388 0 01-.67-1.19 4.817 4.817 0 01-.225-1.503v-.144a.384.384 0 01.089-.26c.064-.081.139-.173.225-.273.091-.1.174-.22.246-.362a5.84 5.84 0 01.848-1.244c.32-.347.675-.61 1.067-.793.391-.187.827-.28 1.305-.28zm-.348 1.421c-.388 0-.702.094-.944.28-.237.183-.41.427-.52.732-.109.3-.163.631-.163.991v.144c0 .291.03.567.088.827.064.255.16.48.288.677.127.196.296.35.505.465.21.109.463.164.76.164.295 0 .546-.055.751-.164a1.38 1.38 0 00.506-.465c.128-.196.221-.422.28-.677.064-.26.096-.536.096-.827v-.144a2.97 2.97 0 00-.096-.765 1.875 1.875 0 00-.28-.636 1.299 1.299 0 00-.513-.438 1.622 1.622 0 00-.758-.164zm8.1-1.838v1.428h-3.698V6.604h3.698zm-.397 2.276h2.16c.657 0 1.215.11 1.675.328.465.214.818.515 1.06.902.246.383.369.828.369 1.333 0 .365-.068.705-.205 1.019a2.29 2.29 0 01-.608.813c-.265.228-.59.406-.978.534-.383.127-.82.191-1.313.191h-3.322V6.604h1.812v5.981h1.51c.31 0 .559-.052.746-.157.191-.11.33-.249.417-.417a1.22 1.22 0 00.13-.554c0-.2-.044-.387-.13-.56a.997.997 0 00-.417-.431c-.187-.11-.436-.164-.746-.164h-2.16V8.88zm9.994 5.257c-.56 0-1.064-.091-1.51-.274a3.318 3.318 0 01-1.142-.758 3.489 3.489 0 01-.718-1.142 3.98 3.98 0 01-.246-1.408v-.274c0-.57.082-1.087.246-1.552a3.58 3.58 0 01.697-1.21 3.084 3.084 0 011.08-.779c.42-.182.882-.273 1.388-.273.524 0 .987.089 1.388.266.401.174.736.42 1.005.739.269.319.471.702.608 1.148.137.442.205.932.205 1.47v.759h-5.797V9.604h4.02v-.136a2.177 2.177 0 00-.164-.786 1.256 1.256 0 00-.465-.575c-.21-.145-.48-.218-.813-.218-.27 0-.504.059-.705.177-.196.114-.36.278-.492.493a2.44 2.44 0 00-.287.752 4.55 4.55 0 00-.096.97v.274c0 .31.041.597.123.861.087.264.212.495.376.69.169.192.37.342.602.452.237.104.506.157.807.157.378 0 .72-.073 1.025-.219.31-.15.579-.371.807-.663l.909.943a3.026 3.026 0 01-.629.657 3.2 3.2 0 01-.943.512c-.37.128-.796.192-1.279.192zm5.824-7.533h1.805l-.068 2.542c-.023.77-.114 1.436-.274 1.997-.155.556-.362 1.023-.622 1.4a3.51 3.51 0 01-.875.917 4.14 4.14 0 01-1.019.54h-.43l-.007-1.408.212-.014c.214-.228.394-.451.54-.67.15-.223.271-.462.362-.718.091-.255.16-.546.205-.875a10.1 10.1 0 00.096-1.169l.075-2.542zm.486 0h4.792V14h-1.805V8.087h-2.987V6.604zm-2.379 5.974h8.203v3.637h-1.805V14h-4.56v2.215h-1.845l.007-3.637zm11.347-1.155l2.693-4.82h1.812V14h-1.812V9.174L113.941 14h-1.812V6.604h1.812v4.819zm11.477-1.784v1.415h-3.794V9.639h3.794zm-3.226-3.035V14h-1.812V6.604h1.812zm4.491 0V14h-1.818V6.604h1.818zm5.243 7.533a3.968 3.968 0 01-1.511-.274 3.32 3.32 0 01-1.142-.758 3.491 3.491 0 01-.717-1.142 3.98 3.98 0 01-.246-1.408v-.274c0-.57.082-1.087.246-1.552.164-.469.396-.872.697-1.21a3.073 3.073 0 011.08-.779 3.444 3.444 0 011.388-.273c.524 0 .986.089 1.387.266.401.174.736.42 1.005.739.269.319.472.702.609 1.148.136.442.205.932.205 1.47v.759h-5.797V9.604h4.019v-.136a2.16 2.16 0 00-.164-.786 1.257 1.257 0 00-.464-.575c-.21-.145-.481-.218-.814-.218a1.36 1.36 0 00-.704.177 1.41 1.41 0 00-.492.493 2.41 2.41 0 00-.287.752 4.537 4.537 0 00-.096.97v.274c0 .31.041.597.123.861.087.264.212.495.376.69.169.192.369.342.602.452.237.104.505.157.806.157.378 0 .72-.073 1.026-.219a2.29 2.29 0 00.806-.663l.909.943a3.003 3.003 0 01-.629.657c-.259.21-.574.38-.943.512a3.906 3.906 0 01-1.278.192zm9.543-4.498v1.415h-3.794V9.639h3.794zm-3.227-3.035V14h-1.812V6.604h1.812zm4.491 0V14h-1.818V6.604h1.818zm6.973 3.035v1.415h-3.794V9.639h3.794zm-3.227-3.035V14h-1.812V6.604h1.812zm4.491 0V14h-1.818V6.604h1.818zm5.995 5.824V9.017c0-.251-.043-.468-.13-.65a.938.938 0 00-.396-.424c-.178-.1-.404-.15-.677-.15-.242 0-.454.041-.636.123a.937.937 0 00-.41.349.899.899 0 00-.144.506h-1.811c0-.306.073-.595.219-.869a2.32 2.32 0 01.622-.738 3.06 3.06 0 01.977-.513 4.187 4.187 0 011.285-.184c.561 0 1.06.096 1.498.287.442.187.788.47 1.039.848.255.378.382.854.382 1.428v3.227c0 .369.023.686.069.95.05.26.123.485.219.677V14h-1.839a2.723 2.723 0 01-.199-.71 5.645 5.645 0 01-.068-.862zm.253-2.933l.014 1.073h-1.142c-.283 0-.531.03-.745.09-.214.054-.39.136-.526.245a.992.992 0 00-.308.383 1.168 1.168 0 00-.103.5c0 .181.041.346.123.491.087.146.21.262.37.349.164.082.355.123.574.123.319 0 .597-.064.834-.191a1.65 1.65 0 00.554-.479c.132-.187.202-.365.211-.533l.52.78c-.064.186-.16.384-.287.594-.128.21-.292.405-.492.588a2.509 2.509 0 01-.725.451 2.532 2.532 0 01-.984.178c-.479 0-.907-.096-1.285-.287a2.276 2.276 0 01-.896-.787 2.017 2.017 0 01-.328-1.134c0-.392.073-.739.219-1.04.145-.3.362-.553.649-.758a3.02 3.02 0 011.066-.472 5.97 5.97 0 011.47-.164h1.217zm5.045.855h1.852L162.037 14h-1.853l2.079-3.65zm1.257-3.746h3.213V14h-1.804V8.012h-1.409c-.287 0-.526.052-.717.157a1.045 1.045 0 00-.554.895c0 .165.043.324.13.479.086.155.219.283.396.383.183.1.41.15.684.15h2.112v1.272h-2.112c-.469 0-.891-.057-1.265-.171a2.974 2.974 0 01-.95-.492 2.145 2.145 0 01-.595-.739 2.16 2.16 0 01-.205-.936c0-.347.069-.666.205-.957.142-.292.344-.547.609-.766.269-.219.592-.387.97-.506a4.366 4.366 0 011.292-.177zM72.25 29.867l2.078-5.264h1.51L72.866 32h-1.223l-2.967-7.396h1.517l2.058 5.263zm-2.502-5.264V32h-1.812v-7.396h1.812zM74.786 32v-7.396h1.812V32h-1.812zm7.212.137c-.56 0-1.064-.091-1.511-.274a3.318 3.318 0 01-1.142-.758 3.488 3.488 0 01-.717-1.142 3.977 3.977 0 01-.246-1.408v-.274c0-.57.082-1.087.246-1.551.164-.47.396-.873.697-1.21.3-.338.66-.598 1.08-.78.42-.182.882-.273 1.388-.273.524 0 .986.089 1.387.266.401.174.736.42 1.005.739.27.319.472.701.609 1.148.136.442.205.932.205 1.47v.759h-5.797v-1.244h4.02v-.137a2.178 2.178 0 00-.165-.786 1.256 1.256 0 00-.465-.575c-.21-.145-.48-.218-.813-.218a1.36 1.36 0 00-.704.177c-.196.114-.36.278-.492.493a2.44 2.44 0 00-.287.752 4.552 4.552 0 00-.096.97v.274c0 .31.04.597.123.861.087.264.212.494.376.69.169.192.37.342.602.452.236.104.505.157.806.157.378 0 .72-.073 1.025-.219.31-.15.58-.371.807-.663l.91.943a3.019 3.019 0 01-.63.657 3.2 3.2 0 01-.943.512 3.895 3.895 0 01-1.278.192zm7.998-7.534V32h-1.812v-7.396h1.812zm2.406 0v1.409h-6.583v-1.409h6.583zm5.304 5.825v-3.411a1.5 1.5 0 00-.13-.65.938.938 0 00-.396-.424c-.178-.1-.404-.15-.677-.15-.242 0-.453.041-.636.123a.938.938 0 00-.41.349.901.901 0 00-.143.505h-1.812c0-.305.073-.594.219-.868a2.32 2.32 0 01.622-.738c.273-.219.6-.39.977-.513a4.186 4.186 0 011.286-.184c.56 0 1.06.096 1.497.287.442.187.788.47 1.039.848.255.378.383.854.383 1.428v3.227c0 .369.022.686.068.95.05.26.123.485.219.677V32h-1.84a2.721 2.721 0 01-.197-.71 5.571 5.571 0 01-.069-.862zm.253-2.933l.014 1.073H96.83c-.282 0-.53.03-.745.09-.214.054-.39.136-.526.245a.998.998 0 00-.308.383 1.164 1.164 0 00-.102.5c0 .181.04.345.123.491a.94.94 0 00.369.349c.164.082.355.123.574.123.319 0 .597-.064.834-.191a1.65 1.65 0 00.554-.479c.132-.187.203-.364.212-.533l.52.78c-.065.186-.16.384-.288.594-.128.21-.292.405-.492.588-.2.182-.442.332-.725.451a2.53 2.53 0 01-.984.178c-.479 0-.907-.096-1.285-.287a2.277 2.277 0 01-.896-.787 2.019 2.019 0 01-.328-1.134c0-.392.073-.739.219-1.04.146-.3.362-.553.65-.758.286-.21.642-.367 1.066-.472a5.93 5.93 0 011.47-.164h1.216zm8.442-2.892v1.43h-3.623v-1.43h3.623zm1.361 0V32h-1.805v-7.396h1.805zm-5.435 0h1.784l-.198 3.692a10.527 10.527 0 01-.171 1.429 4.623 4.623 0 01-.328 1.046 2.299 2.299 0 01-.499.704 1.85 1.85 0 01-.684.403 2.806 2.806 0 01-.861.123h-.554l-.02-1.456.26-.02a.89.89 0 00.41-.13.911.911 0 00.3-.315c.087-.137.158-.312.212-.526.06-.219.105-.474.137-.766.037-.296.062-.638.075-1.025l.137-3.159zm12.339 0v1.43h-3.623v-1.43h3.623zm1.36 0V32h-1.805v-7.396h1.805zm-5.435 0h1.785l-.199 3.692a10.527 10.527 0 01-.171 1.429 4.623 4.623 0 01-.328 1.046 2.282 2.282 0 01-.499.704 1.854 1.854 0 01-.683.403 2.817 2.817 0 01-.862.123h-.553l-.021-1.456.26-.02a.89.89 0 00.41-.13.905.905 0 00.301-.315 1.86 1.86 0 00.212-.526 4.99 4.99 0 00.136-.766c.037-.296.062-.638.076-1.025l.136-3.159zm7.048 3.774v-.144c0-.542.077-1.04.232-1.497a3.47 3.47 0 01.677-1.196 3.05 3.05 0 011.087-.786c.428-.192.916-.287 1.463-.287.556 0 1.048.096 1.477.287a3.04 3.04 0 011.093.786c.297.337.522.736.677 1.196.155.456.232.955.232 1.497v.144a4.66 4.66 0 01-.232 1.497c-.155.456-.38.855-.677 1.196a3.02 3.02 0 01-1.087.786c-.428.187-.918.28-1.469.28a3.676 3.676 0 01-1.47-.28 3.03 3.03 0 01-1.094-.786 3.554 3.554 0 01-.677-1.196 4.663 4.663 0 01-.232-1.497zm1.805-.144v.144c0 .324.032.627.095.91.064.282.162.53.294.744.132.214.303.383.513.506.214.119.469.178.766.178.291 0 .542-.06.752-.178.209-.123.38-.292.512-.506.137-.214.237-.462.301-.745.064-.282.096-.585.096-.909v-.144a3.98 3.98 0 00-.096-.895 2.322 2.322 0 00-.301-.745 1.434 1.434 0 00-1.278-.704 1.42 1.42 0 00-1.265.704c-.132.214-.23.462-.294.745a4.045 4.045 0 00-.095.895zm11.586-3.63v1.43h-3.623v-1.43h3.623zm1.361 0V32h-1.805v-7.396h1.805zm-5.435 0h1.784l-.198 3.692a10.527 10.527 0 01-.171 1.429 4.623 4.623 0 01-.328 1.046 2.299 2.299 0 01-.499.704 1.85 1.85 0 01-.684.403 2.806 2.806 0 01-.861.123h-.554l-.02-1.456.26-.02a.89.89 0 00.41-.13.914.914 0 00.301-.315c.086-.137.157-.312.211-.526.06-.219.105-.474.137-.766.037-.296.062-.638.075-1.025l.137-3.159zm7.048 3.774v-.144c0-.542.077-1.04.232-1.497a3.47 3.47 0 01.677-1.196 3.04 3.04 0 011.087-.786c.428-.192.916-.287 1.463-.287.556 0 1.048.096 1.476.287.433.187.798.449 1.094.786.296.337.522.736.677 1.196.155.456.232.955.232 1.497v.144a4.66 4.66 0 01-.232 1.497 3.554 3.554 0 01-.677 1.196c-.296.338-.659.6-1.087.786-.428.187-.918.28-1.47.28a3.67 3.67 0 01-1.469-.28 3.03 3.03 0 01-1.094-.786 3.554 3.554 0 01-.677-1.196 4.663 4.663 0 01-.232-1.497zm1.804-.144v.144c0 .324.032.627.096.91.064.282.162.53.294.744.132.214.303.383.513.506.214.119.469.178.765.178.292 0 .543-.06.752-.178a1.47 1.47 0 00.513-.506c.137-.214.237-.462.301-.745a4.11 4.11 0 00.095-.909v-.144c0-.319-.031-.617-.095-.895a2.322 2.322 0 00-.301-.745 1.429 1.429 0 00-.52-.513 1.429 1.429 0 00-.758-.191 1.417 1.417 0 00-1.265.704c-.132.214-.23.462-.294.745a3.985 3.985 0 00-.096.895zm11.163 1.634l2.078-5.264h1.511L147.586 32h-1.223l-2.967-7.396h1.518l2.057 5.263zm-2.502-5.264V32h-1.811v-7.396h1.811zM149.507 32v-7.396h1.812V32h-1.812zm8.941-4.361v1.415h-3.794v-1.415h3.794zm-3.226-3.035V32h-1.812v-7.396h1.812zm4.491 0V32h-1.818v-7.396h1.818zm5.995 5.824v-3.411c0-.251-.043-.468-.13-.65a.943.943 0 00-.396-.424c-.178-.1-.404-.15-.677-.15-.242 0-.454.041-.636.123a.937.937 0 00-.41.349.9.9 0 00-.144.505h-1.811c0-.305.073-.594.219-.868a2.31 2.31 0 01.622-.738c.273-.219.599-.39.977-.513a4.186 4.186 0 011.285-.184c.561 0 1.06.096 1.497.287.442.187.789.47 1.039.848.256.378.383.854.383 1.428v3.227c0 .369.023.686.069.95.05.26.123.485.218.677V32h-1.838a2.723 2.723 0 01-.199-.71 5.645 5.645 0 01-.068-.862zm.253-2.933l.014 1.073h-1.142c-.283 0-.531.03-.745.09-.214.054-.39.136-.527.245a1 1 0 00-.307.383 1.154 1.154 0 00-.103.5c0 .181.041.345.123.491.087.146.21.262.369.349.165.082.356.123.575.123.319 0 .597-.064.834-.191.237-.133.421-.292.553-.479.133-.187.203-.364.212-.533l.52.78c-.064.186-.16.384-.287.594-.128.21-.292.405-.492.588a2.523 2.523 0 01-.725.451 2.532 2.532 0 01-.984.178 2.81 2.81 0 01-1.286-.287 2.28 2.28 0 01-.895-.787 2.017 2.017 0 01-.328-1.134c0-.392.073-.739.219-1.04.145-.3.362-.553.649-.758a3.02 3.02 0 011.066-.472 5.97 5.97 0 011.47-.164h1.217zm5.045.855h1.852L170.78 32h-1.853l2.079-3.65zm1.257-3.747h3.213V32h-1.804v-5.988h-1.409c-.287 0-.526.052-.717.157a1.046 1.046 0 00-.554.895c0 .165.043.324.13.479a.998.998 0 00.396.383c.182.1.41.15.684.15h2.112v1.272h-2.112a4.33 4.33 0 01-1.265-.171 2.974 2.974 0 01-.95-.492 2.145 2.145 0 01-.595-.739 2.16 2.16 0 01-.205-.936c0-.347.069-.666.205-.957a2.28 2.28 0 01.609-.766c.269-.219.592-.387.97-.506a4.369 4.369 0 011.292-.177zm-102.522 18V50h-1.805v-7.397h1.805zm4.82 0l-3.261 4.54h-1.921l-.226-1.655h1.333l1.798-2.885h2.276zM72.394 50l-2.024-3.172 1.504-.943L74.793 50h-2.4zm2.911-3.623v-.144c0-.542.078-1.04.233-1.497.155-.46.38-.859.677-1.196.296-.337.658-.6 1.087-.786a3.552 3.552 0 011.462-.287c.556 0 1.049.096 1.477.287.433.187.797.449 1.094.786.296.337.522.736.676 1.196.155.456.233.955.233 1.497v.144a4.66 4.66 0 01-.233 1.497c-.154.456-.38.854-.676 1.196-.296.338-.659.6-1.087.786-.429.187-.919.28-1.47.28a3.675 3.675 0 01-1.47-.28 3.031 3.031 0 01-1.093-.786 3.548 3.548 0 01-.677-1.196 4.666 4.666 0 01-.233-1.497zm1.805-.144v.144c0 .323.032.627.096.91.064.282.162.53.294.744.132.214.303.383.512.506.215.119.47.178.766.178.292 0 .542-.06.752-.178.21-.123.38-.292.513-.506.136-.214.237-.462.3-.745.064-.282.096-.586.096-.909v-.144a4.04 4.04 0 00-.095-.895 2.324 2.324 0 00-.301-.745 1.435 1.435 0 00-1.279-.704 1.42 1.42 0 00-1.264.704c-.132.214-.23.462-.294.745a3.997 3.997 0 00-.096.895zm11.163 1.634l2.078-5.264h1.51L88.889 50h-1.224l-2.966-7.397h1.517l2.058 5.264zm-2.502-5.264V50h-1.812v-7.397h1.812zM90.809 50v-7.397h1.812V50h-1.812zm8.852-7.397v1.43h-3.616v-1.43h3.616zm-3.137 0V50h-1.812v-7.397h1.812zm4.504 0V50H99.21v-7.397h1.818zm5.995 5.825v-3.411c0-.251-.043-.468-.13-.65a.933.933 0 00-.396-.424c-.178-.1-.403-.15-.677-.15-.241 0-.453.041-.636.123a.943.943 0 00-.41.349.907.907 0 00-.143.505h-1.812c0-.305.073-.594.219-.868a2.32 2.32 0 01.622-.738 3.05 3.05 0 01.978-.513 4.181 4.181 0 011.285-.184c.56 0 1.059.096 1.497.287.442.187.788.47 1.039.848.255.378.383.854.383 1.428v3.227c0 .369.022.686.068.95.05.26.123.485.219.677V50h-1.839a2.687 2.687 0 01-.198-.71 5.524 5.524 0 01-.069-.862zm.253-2.933l.014 1.073h-1.142c-.282 0-.531.03-.745.09a1.379 1.379 0 00-.526.245 1.002 1.002 0 00-.308.383 1.168 1.168 0 00-.102.5c0 .181.041.346.123.491a.932.932 0 00.369.349c.164.082.355.123.574.123.319 0 .597-.064.834-.191a1.64 1.64 0 00.554-.479c.132-.187.203-.364.212-.533l.519.78a3.045 3.045 0 01-.287.594c-.127.21-.292.405-.492.588a2.509 2.509 0 01-.725.451c-.282.118-.61.178-.984.178-.479 0-.907-.096-1.285-.287a2.283 2.283 0 01-.896-.787 2.025 2.025 0 01-.328-1.134c0-.392.073-.739.219-1.04.146-.3.362-.553.649-.758.287-.21.643-.367 1.067-.472.428-.11.918-.164 1.469-.164h1.217zm8.524.144v1.415h-3.794v-1.415h3.794zm-3.226-3.036V50h-1.812v-7.397h1.812zm4.491 0V50h-1.818v-7.397h1.818zm3.746 4.82l2.693-4.82h1.812V50h-1.812v-4.826L120.811 50h-1.812v-7.397h1.812v4.82zm7.998-1.073h1.852L128.583 50h-1.852l2.078-3.65zm1.257-3.747h3.213V50h-1.804v-5.988h-1.409c-.287 0-.526.052-.717.157a1.046 1.046 0 00-.554.896c0 .163.043.323.13.478.086.155.219.282.396.383.183.1.41.15.684.15h2.112v1.272h-2.112c-.469 0-.891-.057-1.265-.171a2.974 2.974 0 01-.95-.492 2.145 2.145 0 01-.595-.739 2.16 2.16 0 01-.205-.936c0-.347.069-.666.205-.957a2.28 2.28 0 01.609-.766c.269-.219.592-.387.97-.506a4.369 4.369 0 011.292-.178z" fill="#E0E0E0"/><path d="M2 37.235V14.658L21.5 3.455V27.29L2 37.235z" stroke="#FFB100" stroke-width="4"/><path d="M47 40.5L23.5 54 0 40.5l23.5-12V0L47 13.5v27z" fill="#4A7AF5"/><path d="M47 40.5L23.5 54 0 40.5l23.5-12V0L47 13.5v27z" fill="url(#paint0_angular_32_107)"/><defs><radialGradient id="paint0_angular_32_107" cx="0" cy="0" r="1" gradientUnits="userSpaceOnUse" gradientTransform="matrix(23.50004 12.00002 -12.12445 23.74371 23.5 28.5)"><stop stop-color="#4A7AF5"/><stop offset="0" stop-color="#163175"/><stop offset="1" stop-color="#163175" stop-opacity="0"/></radialGradient></defs></svg>