<svg width="105" height="28" viewBox="0 0 105 28" fill="none" xmlns="http://www.w3.org/2000/svg">
<g clip-path="url(#clip0_36_139)">
<path d="M13.6852 28C21.2434 28 27.3705 21.732 27.3705 14C27.3705 6.26802 21.2434 0 13.6852 0C6.12709 0 0 6.26802 0 14C0 21.732 6.12709 28 13.6852 28Z" fill="#4EB964"/>
<path d="M10.9684 7.63626H13.6854L9.9674 20.7878H7.46484L10.9684 7.63626ZM17.189 7.63626H19.906L16.4024 20.7878H13.6854L17.189 7.63626Z" fill="white"/>
<path d="M10.9684 7.63626H13.6854L9.9674 20.7878H7.46484L10.9684 7.63626ZM17.189 7.63626H19.906L16.4024 20.7878H13.6854L17.189 7.63626Z" fill="white"/>
<path d="M41.4054 9.85031L43.6178 15.5448L44.1173 17.443H44.1887L44.5455 15.5448L46.2582 9.92334H47.6856L44.4741 19.8523H43.7605L41.2627 13.4276L40.9058 11.8215H40.8345L40.4776 13.4276L38.0512 19.8523H37.3376L33.9834 9.85031H35.6248L37.4803 15.4719L37.8371 17.37L38.2654 15.4719L40.2636 9.85031H41.4054Z" fill="#E0E0E0"/>
<path d="M55.964 18.8301C55.6071 19.1221 55.1075 19.4142 54.5367 19.5602C53.9658 19.7062 53.3235 19.8522 52.6811 19.8522C51.9675 19.8522 51.3252 19.7062 50.8257 19.4872C50.3261 19.2682 49.8266 18.9031 49.5411 18.4651C49.1843 18.0271 48.9702 17.516 48.7561 16.859C48.6133 16.2019 48.542 15.5448 48.542 14.7418C48.542 13.0626 48.8988 11.8215 49.6125 10.9454C50.3261 10.0693 51.3966 9.63126 52.6811 9.63126C53.1093 9.63126 53.5375 9.70428 53.9658 9.77725C54.3939 9.85027 54.7508 10.0693 55.1076 10.3613C55.4644 10.6534 55.7499 11.0184 55.964 11.5294C56.178 12.0405 56.3208 12.6975 56.3208 13.5006C56.3208 13.9387 56.2494 14.3767 56.178 14.8878H50.112C50.112 15.4718 50.1834 15.9828 50.2547 16.4209C50.3975 16.859 50.5402 17.224 50.7543 17.516C50.9684 17.808 51.3252 18.0271 51.6821 18.2461C52.0389 18.3921 52.5384 18.4651 53.1093 18.4651C53.5376 18.4651 53.9658 18.3921 54.3939 18.2461C54.8221 18.1001 55.179 17.881 55.393 17.735L55.964 18.8301ZM52.6811 11.0184C51.9675 11.0184 51.3252 11.2374 50.897 11.6025C50.4689 11.9675 50.1834 12.6975 50.112 13.6466H54.8221C54.8221 12.6975 54.608 11.9675 54.2512 11.6025C53.8943 11.1644 53.3948 11.0184 52.6811 11.0184Z" fill="#E0E0E0"/>
<path d="M58.4614 5.98093H59.9602V10.7993H60.0313C60.317 10.4343 60.6738 10.1423 61.1734 9.92327C61.6013 9.70425 62.1009 9.63123 62.6722 9.63123C63.8853 9.63123 64.8128 10.0693 65.4552 10.8724C66.0976 11.6755 66.3833 12.9165 66.3833 14.5957C66.3833 16.2748 65.9548 17.589 65.1696 18.4651C64.3849 19.3411 63.2429 19.7792 61.7441 19.7792C61.0305 19.7792 60.3881 19.7062 59.8174 19.5601C59.2467 19.4142 58.8182 19.2682 58.5326 19.0491V5.98093H58.4614ZM62.3865 11.0184C61.7441 11.0184 61.2445 11.1644 60.8166 11.5294C60.3881 11.8945 60.103 12.4055 59.9602 13.0626V17.954C60.1742 18.1001 60.4598 18.173 60.8166 18.246C61.1734 18.3191 61.5301 18.3191 61.8869 18.3191C62.7433 18.3191 63.4568 18.027 63.9564 17.37C64.456 16.7129 64.7417 15.7638 64.7417 14.4497C64.7417 13.9386 64.67 13.5006 64.5989 13.0626C64.5277 12.6245 64.3849 12.2595 64.1709 11.9674C63.9564 11.6755 63.7425 11.3834 63.4568 11.2374C63.1718 11.0914 62.815 11.0184 62.3865 11.0184Z" fill="#E0E0E0"/>
<path d="M72.9485 16.9323C72.9485 16.5672 72.8063 16.2752 72.5918 15.9831C72.3778 15.7641 72.0922 15.5451 71.7354 15.3991C71.3786 15.2531 71.0218 15.1071 70.6651 14.9611C70.2366 14.815 69.8798 14.669 69.5947 14.45C69.238 14.231 68.9523 13.939 68.7384 13.6469C68.5239 13.2819 68.3816 12.8438 68.3816 12.2598C68.3816 11.3107 68.6667 10.6537 69.1663 10.2156C69.6659 9.77755 70.3794 9.55853 71.3075 9.55853C72.021 9.55853 72.5918 9.63156 73.0202 9.77755C73.4481 9.9236 73.8766 10.0696 74.2334 10.2156L73.8766 11.5297C73.591 11.3837 73.2342 11.2377 72.8063 11.1647C72.3778 11.0187 71.9493 11.0187 71.4503 11.0187C70.879 11.0187 70.4511 11.0917 70.2366 11.3107C69.9515 11.5297 69.8798 11.8218 69.8798 12.3328C69.8798 12.6978 70.0226 12.9169 70.2366 13.1359C70.4511 13.3549 70.7362 13.5009 71.093 13.6469C71.4503 13.793 71.8071 13.939 72.1639 14.085C72.5918 14.231 72.9485 14.45 73.2342 14.669C73.591 14.8881 73.8766 15.1801 74.0905 15.5451C74.3045 15.9102 74.4473 16.3482 74.4473 16.9323C74.4473 17.3703 74.3762 17.7353 74.2334 18.1003C74.0905 18.4654 73.8766 18.7574 73.5909 19.0495C73.3053 19.3414 72.9485 19.4875 72.5206 19.6335C72.0922 19.7795 71.5926 19.8525 71.093 19.8525C70.3794 19.8525 69.737 19.7795 69.238 19.6335C68.7384 19.4875 68.3099 19.3415 67.9531 19.1224L68.3816 17.8083C68.6667 17.9543 69.0234 18.1003 69.523 18.2464C70.0226 18.3924 70.4511 18.4654 70.9507 18.4654C71.5214 18.4654 71.9493 18.3193 72.3067 18.1003C72.6634 17.8813 72.9485 17.5163 72.9485 16.9323Z" fill="#E0E0E0"/>
<path d="M75.5176 9.85028H77.0164V7.9521L78.5152 7.51407V9.85028H81.0843V11.2374H78.5152V16.6399C78.5152 17.297 78.5863 17.808 78.7291 18.1C78.8719 18.3921 79.1576 18.5381 79.5855 18.5381C79.9422 18.5381 80.2279 18.5381 80.4418 18.4651C80.6564 18.3921 80.9414 18.319 81.2271 18.1731L81.5839 19.3412C81.2271 19.4872 80.8703 19.6332 80.4418 19.7792C80.0139 19.8522 79.5855 19.9252 79.1576 19.9252C78.3723 19.9252 77.8727 19.7062 77.516 19.2681C77.2303 18.8301 77.0164 18.1 77.0164 17.0049V11.3104H75.5176V9.85028Z" fill="#E0E0E0"/>
<path d="M86.0091 16.1289L86.5087 18.0271H86.5804L87.0083 16.1289L88.8639 9.85031H90.3627L87.5791 18.6112C87.3651 19.2682 87.1512 19.8522 86.9372 20.4363C86.7227 21.0204 86.5087 21.5314 86.2231 22.0425C85.938 22.4805 85.6524 22.8456 85.3667 23.1376C85.0816 23.4296 84.6532 23.5756 84.2964 23.5756C83.8685 23.5756 83.44 23.5026 83.1544 23.3566L83.44 22.0425C83.5829 22.1155 83.7968 22.1155 83.9396 22.1155C84.2964 22.1155 84.6532 21.8965 84.9388 21.5314C85.2956 21.1664 85.5096 20.5093 85.7235 19.5602L81.8701 9.85031H83.5829L86.0091 16.1289Z" fill="#E0E0E0"/>
<path d="M93.7158 17.2242C93.7158 17.6623 93.787 18.0273 93.9298 18.1733C94.0726 18.3923 94.2866 18.4654 94.5722 18.4654C94.715 18.4654 94.929 18.4654 95.0718 18.3924C95.2858 18.3924 95.4997 18.3194 95.7137 18.2463L95.8565 19.4875C95.6425 19.5605 95.3569 19.7065 95.0001 19.7065C94.6433 19.7795 94.3577 19.7795 94.0726 19.7795C93.5013 19.7795 93.0017 19.6335 92.6449 19.2685C92.2882 18.9034 92.0742 18.3923 92.0742 17.5893V5.9082H93.573V17.2242H93.7158Z" fill="#E0E0E0"/>
<path d="M104.564 18.8301C104.207 19.1221 103.707 19.4142 103.136 19.5602C102.565 19.7062 101.923 19.8522 101.281 19.8522C100.567 19.8522 99.9247 19.7062 99.4256 19.4872C98.926 19.2682 98.4264 18.9031 98.1408 18.4651C97.784 18.0271 97.5701 17.516 97.3556 16.859C97.2133 16.2019 97.1416 15.5448 97.1416 14.7418C97.1416 13.0626 97.4984 11.8215 98.2119 10.9454C98.926 10.0693 99.9964 9.63126 101.281 9.63126C101.709 9.63126 102.137 9.70428 102.565 9.77725C102.993 9.85027 103.351 10.0693 103.707 10.3613C104.064 10.6534 104.349 11.0184 104.564 11.5294C104.778 12.0405 104.921 12.6975 104.921 13.5006C104.921 13.9387 104.849 14.3767 104.778 14.8878H98.7115C98.7115 15.4718 98.7832 15.9828 98.8543 16.4209C98.9972 16.859 99.14 17.224 99.3539 17.516C99.5679 17.808 99.9247 18.0271 100.282 18.2461C100.639 18.3921 101.138 18.4651 101.709 18.4651C102.137 18.4651 102.565 18.3921 102.993 18.2461C103.422 18.1001 103.779 17.881 103.993 17.735L104.564 18.8301ZM101.281 11.0184C100.567 11.0184 99.9247 11.2374 99.4968 11.6025C99.0683 11.9675 98.7832 12.6975 98.7115 13.6466H103.422C103.422 12.6975 103.208 11.9675 102.851 11.6025C102.494 11.1644 101.923 11.0184 101.281 11.0184Z" fill="#E0E0E0"/>
<path d="M41.4054 9.85031L43.6178 15.5448L44.1173 17.443H44.1887L44.5455 15.5448L46.2582 9.92334H47.6856L44.4741 19.8523H43.7605L41.2627 13.4276L40.9058 11.8215H40.8345L40.4776 13.4276L38.0512 19.8523H37.3376L33.9834 9.85031H35.6248L37.4803 15.4719L37.8371 17.37L38.2654 15.4719L40.2636 9.85031H41.4054Z" fill="#E0E0E0"/>
<path d="M55.964 18.8301C55.6071 19.1221 55.1075 19.4142 54.5367 19.5602C53.9658 19.7062 53.3235 19.8522 52.6811 19.8522C51.9675 19.8522 51.3252 19.7062 50.8257 19.4872C50.3261 19.2682 49.8266 18.9031 49.5411 18.4651C49.1843 18.0271 48.9702 17.516 48.7561 16.859C48.6133 16.2019 48.542 15.5448 48.542 14.7418C48.542 13.0626 48.8988 11.8215 49.6125 10.9454C50.3261 10.0693 51.3966 9.63126 52.6811 9.63126C53.1093 9.63126 53.5375 9.70428 53.9658 9.77725C54.3939 9.85027 54.7508 10.0693 55.1076 10.3613C55.4644 10.6534 55.7499 11.0184 55.964 11.5294C56.178 12.0405 56.3208 12.6975 56.3208 13.5006C56.3208 13.9387 56.2494 14.3767 56.178 14.8878H50.112C50.112 15.4718 50.1834 15.9828 50.2547 16.4209C50.3975 16.859 50.5402 17.224 50.7543 17.516C50.9684 17.808 51.3252 18.0271 51.6821 18.2461C52.0389 18.3921 52.5384 18.4651 53.1093 18.4651C53.5376 18.4651 53.9658 18.3921 54.3939 18.2461C54.8221 18.1001 55.179 17.881 55.393 17.735L55.964 18.8301ZM52.6811 11.0184C51.9675 11.0184 51.3252 11.2374 50.897 11.6025C50.4689 11.9675 50.1834 12.6975 50.112 13.6466H54.8221C54.8221 12.6975 54.608 11.9675 54.2512 11.6025C53.8943 11.1644 53.3948 11.0184 52.6811 11.0184Z" fill="#E0E0E0"/>
<path d="M58.4614 5.98093H59.9602V10.7993H60.0313C60.317 10.4343 60.6738 10.1423 61.1734 9.92327C61.6013 9.70425 62.1009 9.63123 62.6722 9.63123C63.8853 9.63123 64.8128 10.0693 65.4552 10.8724C66.0976 11.6755 66.3833 12.9165 66.3833 14.5957C66.3833 16.2748 65.9548 17.589 65.1696 18.4651C64.3849 19.3411 63.2429 19.7792 61.7441 19.7792C61.0305 19.7792 60.3881 19.7062 59.8174 19.5601C59.2467 19.4142 58.8182 19.2682 58.5326 19.0491V5.98093H58.4614ZM62.3865 11.0184C61.7441 11.0184 61.2445 11.1644 60.8166 11.5294C60.3881 11.8945 60.103 12.4055 59.9602 13.0626V17.954C60.1742 18.1001 60.4598 18.173 60.8166 18.246C61.1734 18.3191 61.5301 18.3191 61.8869 18.3191C62.7433 18.3191 63.4568 18.027 63.9564 17.37C64.456 16.7129 64.7417 15.7638 64.7417 14.4497C64.7417 13.9386 64.67 13.5006 64.5989 13.0626C64.5277 12.6245 64.3849 12.2595 64.1709 11.9674C63.9564 11.6755 63.7425 11.3834 63.4568 11.2374C63.1718 11.0914 62.815 11.0184 62.3865 11.0184Z" fill="#E0E0E0"/>
<path d="M72.9485 16.9323C72.9485 16.5672 72.8063 16.2752 72.5918 15.9831C72.3778 15.7641 72.0922 15.5451 71.7354 15.3991C71.3786 15.2531 71.0218 15.1071 70.6651 14.9611C70.2366 14.815 69.8798 14.669 69.5947 14.45C69.238 14.231 68.9523 13.939 68.7384 13.6469C68.5239 13.2819 68.3816 12.8438 68.3816 12.2598C68.3816 11.3107 68.6667 10.6537 69.1663 10.2156C69.6659 9.77755 70.3794 9.55853 71.3075 9.55853C72.021 9.55853 72.5918 9.63156 73.0202 9.77755C73.4481 9.9236 73.8766 10.0696 74.2334 10.2156L73.8766 11.5297C73.591 11.3837 73.2342 11.2377 72.8063 11.1647C72.3778 11.0187 71.9493 11.0187 71.4503 11.0187C70.879 11.0187 70.4511 11.0917 70.2366 11.3107C69.9515 11.5297 69.8798 11.8218 69.8798 12.3328C69.8798 12.6978 70.0226 12.9169 70.2366 13.1359C70.4511 13.3549 70.7362 13.5009 71.093 13.6469C71.4503 13.793 71.8071 13.939 72.1639 14.085C72.5918 14.231 72.9485 14.45 73.2342 14.669C73.591 14.8881 73.8766 15.1801 74.0905 15.5451C74.3045 15.9102 74.4473 16.3482 74.4473 16.9323C74.4473 17.3703 74.3762 17.7353 74.2334 18.1003C74.0905 18.4654 73.8766 18.7574 73.5909 19.0495C73.3053 19.3414 72.9485 19.4875 72.5206 19.6335C72.0922 19.7795 71.5926 19.8525 71.093 19.8525C70.3794 19.8525 69.737 19.7795 69.238 19.6335C68.7384 19.4875 68.3099 19.3415 67.9531 19.1224L68.3816 17.8083C68.6667 17.9543 69.0234 18.1003 69.523 18.2464C70.0226 18.3924 70.4511 18.4654 70.9507 18.4654C71.5214 18.4654 71.9493 18.3193 72.3067 18.1003C72.6634 17.8813 72.9485 17.5163 72.9485 16.9323Z" fill="#E0E0E0"/>
<path d="M75.5176 9.85028H77.0164V7.9521L78.5152 7.51407V9.85028H81.0843V11.2374H78.5152V16.6399C78.5152 17.297 78.5863 17.808 78.7291 18.1C78.8719 18.3921 79.1576 18.5381 79.5855 18.5381C79.9422 18.5381 80.2279 18.5381 80.4418 18.4651C80.6564 18.3921 80.9414 18.319 81.2271 18.1731L81.5839 19.3412C81.2271 19.4872 80.8703 19.6332 80.4418 19.7792C80.0139 19.8522 79.5855 19.9252 79.1576 19.9252C78.3723 19.9252 77.8727 19.7062 77.516 19.2681C77.2303 18.8301 77.0164 18.1 77.0164 17.0049V11.3104H75.5176V9.85028Z" fill="#E0E0E0"/>
<path d="M86.0091 16.1289L86.5087 18.0271H86.5804L87.0083 16.1289L88.8639 9.85031H90.3627L87.5791 18.6112C87.3651 19.2682 87.1512 19.8522 86.9372 20.4363C86.7227 21.0204 86.5087 21.5314 86.2231 22.0425C85.938 22.4805 85.6524 22.8456 85.3667 23.1376C85.0816 23.4296 84.6532 23.5756 84.2964 23.5756C83.8685 23.5756 83.44 23.5026 83.1544 23.3566L83.44 22.0425C83.5829 22.1155 83.7968 22.1155 83.9396 22.1155C84.2964 22.1155 84.6532 21.8965 84.9388 21.5314C85.2956 21.1664 85.5096 20.5093 85.7235 19.5602L81.8701 9.85031H83.5829L86.0091 16.1289Z" fill="#E0E0E0"/>
<path d="M93.7158 17.2242C93.7158 17.6623 93.787 18.0273 93.9298 18.1733C94.0726 18.3923 94.2866 18.4654 94.5722 18.4654C94.715 18.4654 94.929 18.4654 95.0718 18.3924C95.2858 18.3924 95.4997 18.3194 95.7137 18.2463L95.8565 19.4875C95.6425 19.5605 95.3569 19.7065 95.0001 19.7065C94.6433 19.7795 94.3577 19.7795 94.0726 19.7795C93.5013 19.7795 93.0017 19.6335 92.6449 19.2685C92.2882 18.9034 92.0742 18.3923 92.0742 17.5893V5.9082H93.573V17.2242H93.7158Z" fill="#E0E0E0"/>
<path d="M104.564 18.8301C104.207 19.1221 103.707 19.4142 103.136 19.5602C102.565 19.7062 101.923 19.8522 101.281 19.8522C100.567 19.8522 99.9247 19.7062 99.4256 19.4872C98.926 19.2682 98.4264 18.9031 98.1408 18.4651C97.784 18.0271 97.5701 17.516 97.3556 16.859C97.2133 16.2019 97.1416 15.5448 97.1416 14.7418C97.1416 13.0626 97.4984 11.8215 98.2119 10.9454C98.926 10.0693 99.9964 9.63126 101.281 9.63126C101.709 9.63126 102.137 9.70428 102.565 9.77725C102.993 9.85027 103.351 10.0693 103.707 10.3613C104.064 10.6534 104.349 11.0184 104.564 11.5294C104.778 12.0405 104.921 12.6975 104.921 13.5006C104.921 13.9387 104.849 14.3767 104.778 14.8878H98.7115C98.7115 15.4718 98.7832 15.9828 98.8543 16.4209C98.9972 16.859 99.14 17.224 99.3539 17.516C99.5679 17.808 99.9247 18.0271 100.282 18.2461C100.639 18.3921 101.138 18.4651 101.709 18.4651C102.137 18.4651 102.565 18.3921 102.993 18.2461C103.422 18.1001 103.779 17.881 103.993 17.735L104.564 18.8301ZM101.281 11.0184C100.567 11.0184 99.9247 11.2374 99.4968 11.6025C99.0683 11.9675 98.7832 12.6975 98.7115 13.6466H103.422C103.422 12.6975 103.208 11.9675 102.851 11.6025C102.494 11.1644 101.923 11.0184 101.281 11.0184Z" fill="#E0E0E0"/>
</g>
<defs>
<clipPath id="clip0_36_139">
<rect width="105" height="28" fill="white"/>
</clipPath>
</defs>
</svg>
