<svg width="105" height="28" fill="none" xmlns="http://www.w3.org/2000/svg"><g clip-path="url(#clip0_36_139)"><path d="M13.685 28c7.558 0 13.685-6.268 13.685-14S21.244 0 13.685 0C6.127 0 0 6.268 0 14s6.127 14 13.685 14z" fill="#4EB964"/><path d="M10.968 7.636h2.717L9.967 20.788H7.465l3.503-13.152zm6.221 0h2.717l-3.504 13.152h-2.717L17.19 7.636z" fill="#fff"/><path d="M10.968 7.636h2.717L9.967 20.788H7.465l3.503-13.152zm6.221 0h2.717l-3.504 13.152h-2.717L17.19 7.636z" fill="#fff"/><path d="M41.405 9.85l2.213 5.695.5 1.898h.07l.357-1.898 1.713-5.622h1.428l-3.212 9.93h-.713l-2.498-6.425-.357-1.607h-.072l-.356 1.607-2.427 6.424h-.713L33.983 9.85h1.642l1.855 5.622.357 1.898.428-1.898 1.999-5.622h1.141zm14.559 8.98a3.798 3.798 0 01-1.427.73c-.571.146-1.213.292-1.856.292a4.68 4.68 0 01-1.855-.365c-.5-.219-1-.584-1.285-1.022-.357-.438-.57-.949-.785-1.606a9.638 9.638 0 01-.214-2.117c0-1.68.357-2.92 1.07-3.797.714-.876 1.785-1.314 3.07-1.314.427 0 .855.073 1.284.146.428.073.785.292 1.142.584a2.9 2.9 0 01.856 1.168c.214.511.357 1.168.357 1.972 0 .438-.072.876-.143 1.387h-6.066c0 .584.071 1.095.143 1.533.142.438.285.803.5 1.095.213.292.57.511.927.73.357.146.856.22 1.427.22.429 0 .857-.074 1.285-.22a4.252 4.252 0 00.999-.511l.571 1.095zm-3.283-7.812c-.713 0-1.356.22-1.784.584-.428.365-.714 1.095-.785 2.045h4.71c0-.95-.214-1.68-.57-2.045-.358-.438-.857-.584-1.57-.584zm5.78-5.038h1.5v4.82h.07a2.849 2.849 0 011.142-.877c.428-.219.928-.292 1.5-.292 1.212 0 2.14.438 2.782 1.241.643.803.928 2.044.928 3.724 0 1.679-.428 2.993-1.213 3.87-.785.875-1.927 1.313-3.426 1.313a7.782 7.782 0 01-1.927-.219c-.57-.146-.999-.292-1.284-.51V5.98h-.072zm3.925 5.038c-.642 0-1.142.146-1.57.511-.428.366-.713.877-.856 1.534v4.891c.214.146.5.219.857.292.356.073.713.073 1.07.073.856 0 1.57-.292 2.07-.949.499-.657.785-1.606.785-2.92 0-.511-.072-.95-.143-1.387-.071-.439-.214-.804-.428-1.096-.215-.292-.429-.584-.714-.73-.285-.146-.642-.219-1.07-.219zm10.562 5.914c0-.365-.142-.657-.356-.949a2.563 2.563 0 00-.857-.584l-1.07-.438c-.428-.146-.785-.292-1.07-.511a3.067 3.067 0 01-.857-.803c-.214-.365-.356-.803-.356-1.387 0-.95.285-1.606.784-2.044.5-.438 1.213-.657 2.142-.657.713 0 1.284.073 1.712.219.428.146.857.292 1.213.438l-.356 1.314a3.707 3.707 0 00-1.07-.365c-.43-.146-.858-.146-1.357-.146-.571 0-.999.073-1.213.292-.285.219-.357.51-.357 1.022 0 .365.143.584.357.803.214.219.5.365.856.51l1.07.439c.429.146.785.365 1.071.584.357.22.643.511.857.876.214.365.356.803.356 1.387 0 .438-.07.803-.214 1.168-.142.365-.356.657-.642.95-.286.291-.642.438-1.07.584a4.51 4.51 0 01-1.428.218c-.714 0-1.356-.073-1.855-.218-.5-.146-.928-.293-1.285-.512l.429-1.314c.285.146.641.292 1.141.438.5.146.928.22 1.428.22.57 0 .998-.147 1.356-.366.356-.219.641-.584.641-1.168zm2.57-7.082h1.498V7.952l1.5-.438V9.85h2.568v1.387h-2.569v5.403c0 .657.071 1.168.214 1.46.143.292.429.438.856.438.357 0 .643 0 .857-.073.214-.073.5-.146.785-.292l.357 1.168c-.357.146-.714.292-1.142.438-.428.073-.856.146-1.284.146-.786 0-1.285-.219-1.642-.657-.286-.438-.5-1.168-.5-2.263V11.31h-1.498V9.85zm10.492 6.279l.499 1.898h.071l.428-1.898 1.856-6.279h1.499l-2.784 8.761a51.552 51.552 0 01-.642 1.825 10.9 10.9 0 01-.714 1.607c-.285.438-.57.803-.856 1.095a1.554 1.554 0 01-1.07.438c-.428 0-.857-.073-1.143-.22l.286-1.314c.143.073.357.073.5.073.356 0 .713-.218.999-.584.357-.365.57-1.022.785-1.97L81.87 9.85h1.713l2.426 6.278zm7.706 1.095c0 .438.071.803.214.95.143.218.357.291.642.291.143 0 .357 0 .5-.073.214 0 .428-.073.642-.146l.142 1.242c-.213.073-.5.218-.856.218-.357.073-.642.073-.927.073-.572 0-1.071-.145-1.428-.51-.357-.366-.57-.877-.57-1.68V5.91h1.498v11.315h.143zm10.848 1.606a3.8 3.8 0 01-1.428.73c-.571.146-1.213.292-1.855.292a4.677 4.677 0 01-1.855-.365c-.5-.219-1-.584-1.285-1.022-.357-.438-.57-.949-.785-1.606a9.67 9.67 0 01-.214-2.117c0-1.68.356-2.92 1.07-3.797.714-.876 1.784-1.314 3.069-1.314.428 0 .856.073 1.284.146.428.073.786.292 1.142.584.357.292.642.657.857 1.168.214.511.357 1.168.357 1.972 0 .438-.072.876-.143 1.387h-6.067c0 .584.072 1.095.143 1.533.143.438.286.803.5 1.095.214.292.57.511.928.73.357.146.856.22 1.427.22.428 0 .856-.074 1.284-.22a4.245 4.245 0 001-.511l.571 1.095zm-3.283-7.812c-.714 0-1.356.22-1.784.584-.429.365-.714 1.095-.785 2.045h4.71c0-.95-.214-1.68-.571-2.045-.357-.438-.928-.584-1.57-.584z" fill="#E0E0E0"/><path d="M41.405 9.85l2.213 5.695.5 1.898h.07l.357-1.898 1.713-5.622h1.428l-3.212 9.93h-.713l-2.498-6.425-.357-1.607h-.072l-.356 1.607-2.427 6.424h-.713L33.983 9.85h1.642l1.855 5.622.357 1.898.428-1.898 1.999-5.622h1.141zm14.559 8.98a3.798 3.798 0 01-1.427.73c-.571.146-1.213.292-1.856.292a4.68 4.68 0 01-1.855-.365c-.5-.219-1-.584-1.285-1.022-.357-.438-.57-.949-.785-1.606a9.638 9.638 0 01-.214-2.117c0-1.68.357-2.92 1.07-3.797.714-.876 1.785-1.314 3.07-1.314.427 0 .855.073 1.284.146.428.073.785.292 1.142.584a2.9 2.9 0 01.856 1.168c.214.511.357 1.168.357 1.972 0 .438-.072.876-.143 1.387h-6.066c0 .584.071 1.095.143 1.533.142.438.285.803.5 1.095.213.292.57.511.927.73.357.146.856.22 1.427.22.429 0 .857-.074 1.285-.22a4.252 4.252 0 00.999-.511l.571 1.095zm-3.283-7.812c-.713 0-1.356.22-1.784.584-.428.365-.714 1.095-.785 2.045h4.71c0-.95-.214-1.68-.57-2.045-.358-.438-.857-.584-1.57-.584zm5.78-5.038h1.5v4.82h.07a2.849 2.849 0 011.142-.877c.428-.219.928-.292 1.5-.292 1.212 0 2.14.438 2.782 1.241.643.803.928 2.044.928 3.724 0 1.679-.428 2.993-1.213 3.87-.785.875-1.927 1.313-3.426 1.313a7.782 7.782 0 01-1.927-.219c-.57-.146-.999-.292-1.284-.51V5.98h-.072zm3.925 5.038c-.642 0-1.142.146-1.57.511-.428.366-.713.877-.856 1.534v4.891c.214.146.5.219.857.292.356.073.713.073 1.07.073.856 0 1.57-.292 2.07-.949.499-.657.785-1.606.785-2.92 0-.511-.072-.95-.143-1.387-.071-.439-.214-.804-.428-1.096-.215-.292-.429-.584-.714-.73-.285-.146-.642-.219-1.07-.219zm10.562 5.914c0-.365-.142-.657-.356-.949a2.563 2.563 0 00-.857-.584l-1.07-.438c-.428-.146-.785-.292-1.07-.511a3.067 3.067 0 01-.857-.803c-.214-.365-.356-.803-.356-1.387 0-.95.285-1.606.784-2.044.5-.438 1.213-.657 2.142-.657.713 0 1.284.073 1.712.219.428.146.857.292 1.213.438l-.356 1.314a3.707 3.707 0 00-1.07-.365c-.43-.146-.858-.146-1.357-.146-.571 0-.999.073-1.213.292-.285.219-.357.51-.357 1.022 0 .365.143.584.357.803.214.219.5.365.856.51l1.07.439c.429.146.785.365 1.071.584.357.22.643.511.857.876.214.365.356.803.356 1.387 0 .438-.07.803-.214 1.168-.142.365-.356.657-.642.95-.286.291-.642.438-1.07.584a4.51 4.51 0 01-1.428.218c-.714 0-1.356-.073-1.855-.218-.5-.146-.928-.293-1.285-.512l.429-1.314c.285.146.641.292 1.141.438.5.146.928.22 1.428.22.57 0 .998-.147 1.356-.366.356-.219.641-.584.641-1.168zm2.57-7.082h1.498V7.952l1.5-.438V9.85h2.568v1.387h-2.569v5.403c0 .657.071 1.168.214 1.46.143.292.429.438.856.438.357 0 .643 0 .857-.073.214-.073.5-.146.785-.292l.357 1.168c-.357.146-.714.292-1.142.438-.428.073-.856.146-1.284.146-.786 0-1.285-.219-1.642-.657-.286-.438-.5-1.168-.5-2.263V11.31h-1.498V9.85zm10.492 6.279l.499 1.898h.071l.428-1.898 1.856-6.279h1.499l-2.784 8.761a51.552 51.552 0 01-.642 1.825 10.9 10.9 0 01-.714 1.607c-.285.438-.57.803-.856 1.095a1.554 1.554 0 01-1.07.438c-.428 0-.857-.073-1.143-.22l.286-1.314c.143.073.357.073.5.073.356 0 .713-.218.999-.584.357-.365.57-1.022.785-1.97L81.87 9.85h1.713l2.426 6.278zm7.706 1.095c0 .438.071.803.214.95.143.218.357.291.642.291.143 0 .357 0 .5-.073.214 0 .428-.073.642-.146l.142 1.242c-.213.073-.5.218-.856.218-.357.073-.642.073-.927.073-.572 0-1.071-.145-1.428-.51-.357-.366-.57-.877-.57-1.68V5.91h1.498v11.315h.143zm10.848 1.606a3.8 3.8 0 01-1.428.73c-.571.146-1.213.292-1.855.292a4.677 4.677 0 01-1.855-.365c-.5-.219-1-.584-1.285-1.022-.357-.438-.57-.949-.785-1.606a9.67 9.67 0 01-.214-2.117c0-1.68.356-2.92 1.07-3.797.714-.876 1.784-1.314 3.069-1.314.428 0 .856.073 1.284.146.428.073.786.292 1.142.584.357.292.642.657.857 1.168.214.511.357 1.168.357 1.972 0 .438-.072.876-.143 1.387h-6.067c0 .584.072 1.095.143 1.533.143.438.286.803.5 1.095.214.292.57.511.928.73.357.146.856.22 1.427.22.428 0 .856-.074 1.284-.22a4.245 4.245 0 001-.511l.571 1.095zm-3.283-7.812c-.714 0-1.356.22-1.784.584-.429.365-.714 1.095-.785 2.045h4.71c0-.95-.214-1.68-.571-2.045-.357-.438-.928-.584-1.57-.584z" fill="#E0E0E0"/></g><defs><clipPath id="clip0_36_139"><path fill="#fff" d="M0 0h105v28H0z"/></clipPath></defs></svg>